<?xml version="1.0" encoding="UTF-8"?>
<svg id="Layer_1" data-name="Layer 1" xmlns="http://www.w3.org/2000/svg" xmlns:xlink="http://www.w3.org/1999/xlink" viewBox="0 0 143.49 143.49">
  <defs>
    <style>
      .cls-1 {
        fill: url(#linear-gradient-2);
      }

      .cls-2 {
        fill: #ffe9bb;
      }

      .cls-3 {
        fill: #3baeda;
      }

      .cls-4 {
        fill: #c89a7f;
      }

      .cls-5 {
        fill: #2e3192;
      }

      .cls-6 {
        fill: #efd6a8;
      }

      .cls-7 {
        fill: url(#linear-gradient-3);
      }

      .cls-8 {
        fill: url(#linear-gradient);
      }
    </style>
    <linearGradient id="linear-gradient" x1="-221.28" y1="73.22" x2="-209.33" y2="73.22" gradientTransform="translate(-154.32) rotate(-180) scale(1 -1)" gradientUnits="userSpaceOnUse">
      <stop offset=".03" stop-color="#a6a8ad"/>
      <stop offset=".04" stop-color="#a9abb0"/>
      <stop offset=".07" stop-color="#c3c5c8"/>
      <stop offset=".11" stop-color="#d9dadc"/>
      <stop offset=".16" stop-color="#eaeaec"/>
      <stop offset=".21" stop-color="#f6f6f7"/>
      <stop offset=".29" stop-color="#fdfdfd"/>
      <stop offset=".52" stop-color="#fff"/>
      <stop offset=".68" stop-color="#fcfcfc"/>
      <stop offset=".77" stop-color="#f4f4f5"/>
      <stop offset=".85" stop-color="#e7e7e9"/>
      <stop offset=".91" stop-color="#d3d4d7"/>
      <stop offset=".96" stop-color="#bbbcc0"/>
      <stop offset="1" stop-color="#a6a8ad"/>
    </linearGradient>
    <linearGradient id="linear-gradient-2" x1="5548.09" y1="72.91" x2="5560.04" y2="72.91" gradientTransform="translate(-5473.11)" xlink:href="#linear-gradient"/>
    <linearGradient id="linear-gradient-3" x1="71.75" y1="9.82" x2="71.75" y2="45.93" gradientUnits="userSpaceOnUse">
      <stop offset=".11" stop-color="#897266"/>
      <stop offset=".11" stop-color="#877064"/>
      <stop offset=".17" stop-color="#766357"/>
      <stop offset=".24" stop-color="#6a594d"/>
      <stop offset=".33" stop-color="#635448"/>
      <stop offset=".59" stop-color="#625347"/>
    </linearGradient>
  </defs>
  <path class="cls-3" d="m143.49,71.75c0,39.62-32.12,71.75-71.74,71.75S0,111.37,0,71.75,32.12,0,71.75,0s71.74,32.12,71.74,71.75Z"/>
  <g>
    <path class="cls-6" d="m58.09,60.68s1.07,5.27-4.02,8.49c0,0,2.95,11.35,16.98,11.62,0,0,11.08,1.43,17.7-11.44,0,0-5.27-1.52-4.92-8.22,0,0-12.24,13.58-25.74-.45Z"/>
    <path class="cls-5" d="m57.48,65.5s11.74,30.39,27.21-.09c0,0,.05,2.77,7.92,5.54,0,0,14.75,4.65,17.16,10.01,0,0,8.04,18.32,6.17,34.59,0,0-.08,1.34-2.77,3.04,0,0-16.09,7.78-41.56,7.24,0,0-27.26-1.25-43.08-8.31,0,0-2.24-.54-2.32-5.72,0,0,.8-22.7,7.69-32.89,0,0,1.97-2.68,6.61-4.47,0,0,15.91-4.83,16.98-8.94Z"/>
    <path class="cls-8" d="m66.96,78.04s-3.59-4.92-9.89,5.47c0,0-2.2-10.81-2.06-15.64,0,0,3.06-4.33,3.06-4.94,0,0-.36,8.22,8.89,15.11Z"/>
    <path class="cls-1" d="m74.98,77.73s3.59-4.92,9.89,5.47c0,0,2.19-10.81,2.06-15.64,0,0-3.06-4.33-3.06-4.94,0,0,.36,8.22-8.89,15.1Z"/>
    <path class="cls-4" d="m89.97,45.17s.94-.4-.27,3.62l-.67,2.01.94-5.63Z"/>
    <path class="cls-4" d="m53.09,45.26s-.94-.4.27,3.62l.67,2.01-.94-5.63Z"/>
    <path class="cls-2" d="m89.87,41.46l-.22,1.34c.36-7.29-.76-22.46-18.69-22.12-19.43.36-18.18,10.85-17.77,22.39-3.12-1.62-1.04,5.83-1.04,5.83.38,2.42,1.56,3.16,1.91,3.33,2.39,8.68,9.82,16.71,16.63,16.71,7.38,0,14.45-7.53,17.31-15.44,1.67-1.68,2.53-5.74,2.53-5.74,2.01-5.63-.67-6.3-.67-6.3Z"/>
    <path class="cls-7" d="m56.62,28.06s2.95-6.7,14.75-4.56c0,0,9.38-3.49,14.21,4.83,0,0,1.88,3.75,2.41,11.26l.8,6.35,1.21-5s4.83-12.33-1.61-19.57c0,0-3.22-4.42-11.26-6.03,0,0-4.16-2.55-4.16-5.5,0,0-2.95,1.34-2.95,3.75l-1.34-.54-.54,1.07-2.15-1.07s1.21-2.95-1.74.27c0,0-9.25,4.02-11.93,12.33,0,0-2.06,4.87,1.61,19.84,0,0-.54-14.75,2.68-17.43Z"/>
  </g>
</svg>